<!DOCTYPE svg PUBLIC "-//W3C//DTD SVG 1.1//EN" "http://www.w3.org/Graphics/SVG/1.1/DTD/svg11.dtd">
<!-- Uploaded to: SVG Repo, www.svgrepo.com, Transformed by: SVG Repo Mixer Tools -->
<svg width="800px" height="800px" viewBox="-3.2 -3.2 38.40 38.40" version="1.1" xmlns="http://www.w3.org/2000/svg" xmlns:xlink="http://www.w3.org/1999/xlink" fill="#000000">
<g id="SVGRepo_bgCarrier" stroke-width="0" transform="translate(8.64,8.64), scale(0.46)">
<rect x="-3.2" y="-3.2" width="38.40" height="38.40" rx="0" fill="#ffffff" strokewidth="0"/>
</g>
<g id="SVGRepo_tracerCarrier" stroke-linecap="round" stroke-linejoin="round" stroke="#CCCCCC" stroke-width="1.6"> <path fill="#444444" d="M25.716 6.696h-19.296c-0.888 0-1.608 0.72-1.608 1.608v16.080c0 0.888 0.72 1.608 1.608 1.608h19.296c0.888 0 1.608-0.72 1.608-1.608v-16.080c0-0.888-0.72-1.608-1.608-1.608zM8.028 17.952l3.216-3.216-3.216-3.216 1.608-1.608 4.824 4.824-4.824 4.824-1.608-1.608zM20.892 19.56h-6.432v-1.608h6.432v1.608z"/> </g>
<g id="SVGRepo_iconCarrier"> <path fill="#444444" d="M25.716 6.696h-19.296c-0.888 0-1.608 0.72-1.608 1.608v16.080c0 0.888 0.72 1.608 1.608 1.608h19.296c0.888 0 1.608-0.72 1.608-1.608v-16.080c0-0.888-0.72-1.608-1.608-1.608zM8.028 17.952l3.216-3.216-3.216-3.216 1.608-1.608 4.824 4.824-4.824 4.824-1.608-1.608zM20.892 19.56h-6.432v-1.608h6.432v1.608z"/> </g>
</svg>